<svg width="48" height="48" viewBox="0 0 48 48" fill="none" xmlns="http://www.w3.org/2000/svg">
<g clip-path="url(#clip0_675_13437)">
<path d="M5.36998 6C5.19033 6.04094 5.03204 6.14658 4.9253 6.29676C4.81856 6.44694 4.77083 6.63116 4.79123 6.81428C4.81163 6.9974 4.89872 7.16661 5.0359 7.28962C5.17307 7.41263 5.35073 7.48085 5.53498 7.48125H7.97248C8.15673 7.48085 8.33438 7.41263 8.47156 7.28962C8.60873 7.16661 8.69582 6.9974 8.71622 6.81428C8.73662 6.63116 8.6889 6.44694 8.58215 6.29676C8.47541 6.14658 8.31712 6.04094 8.13748 6H5.36998Z" fill="#DA7826"/>
<path d="M29.625 20.25C29.625 19.1375 29.2951 18.0499 28.677 17.1249C28.0589 16.1999 27.1804 15.4789 26.1526 15.0532C25.1248 14.6274 23.9938 14.516 22.9026 14.7331C21.8115 14.9501 20.8092 15.4859 20.0225 16.2725C19.2359 17.0592 18.7001 18.0615 18.4831 19.1526C18.266 20.2438 18.3774 21.3748 18.8032 22.4026C19.2289 23.4304 19.9499 24.3089 20.8749 24.927C21.7999 25.5451 22.8875 25.875 24 25.875C25.4918 25.875 26.9226 25.2824 27.9775 24.2275C29.0324 23.1726 29.625 21.7418 29.625 20.25ZM19.875 20.25C19.875 19.4342 20.1169 18.6366 20.5702 17.9583C21.0235 17.2799 21.6677 16.7512 22.4214 16.439C23.1752 16.1268 24.0046 16.0451 24.8048 16.2043C25.6049 16.3634 26.3399 16.7563 26.9168 17.3332C27.4937 17.9101 27.8866 18.6451 28.0457 19.4453C28.2049 20.2454 28.1232 21.0748 27.811 21.8286C27.4988 22.5823 26.9701 23.2266 26.2917 23.6798C25.6134 24.1331 24.8159 24.375 24 24.375C22.906 24.375 21.8568 23.9404 21.0832 23.1668C20.3096 22.3932 19.875 21.344 19.875 20.25Z" fill="#DA7826"/>
<path d="M44.25 4.5C44.4489 4.5 44.6397 4.42098 44.7803 4.28033C44.921 4.13968 45 3.94891 45 3.75C45 3.55109 44.921 3.36032 44.7803 3.21967C44.6397 3.07902 44.4489 3 44.25 3H42C41.8011 3 41.6103 3.07902 41.4697 3.21967C41.329 3.36032 41.25 3.55109 41.25 3.75C41.25 3.94891 41.329 4.13968 41.4697 4.28033C41.6103 4.42098 41.8011 4.5 42 4.5H44.25Z" fill="#DA7826"/>
<path d="M39 4.5C39.1989 4.5 39.3897 4.42098 39.5303 4.28033C39.671 4.13968 39.75 3.94891 39.75 3.75C39.75 3.55109 39.671 3.36032 39.5303 3.21967C39.3897 3.07902 39.1989 3 39 3H36.75C36.5511 3 36.3603 3.07902 36.2197 3.21967C36.079 3.36032 36 3.55109 36 3.75C36 3.94891 36.079 4.13968 36.2197 4.28033C36.3603 4.42098 36.5511 4.5 36.75 4.5H39Z" fill="#DA7826"/>
<path d="M1.5 47.9663H4.66125C4.73049 47.9878 4.80249 47.9991 4.875 48H43.125C43.1975 47.9991 43.2695 47.9878 43.3387 47.9663H46.5C46.8978 47.9663 47.2794 47.8082 47.5607 47.5269C47.842 47.2456 48 46.8641 48 46.4663V19.4288C47.5153 19.6037 46.9847 19.6037 46.5 19.4288V46.4663H43.545L37.9838 36.4613C37.8897 36.292 37.7338 36.1657 37.5487 36.1088L30.2475 33.8588L28.6538 31.7362C28.552 31.6005 28.4073 31.5032 28.2431 31.4602C28.079 31.4173 27.9052 31.4314 27.75 31.5L27.465 31.62C27.5025 31.37 27.55 31.13 27.6075 30.9L29.7113 30.03C29.8946 29.9537 30.0402 29.8078 30.1161 29.6243C30.192 29.4409 30.1921 29.2348 30.1162 29.0513L29.5725 27.7125C30.2985 27.1743 30.9416 26.5325 31.4812 25.8075L32.8237 26.3625C33.0073 26.4383 33.2134 26.4382 33.3968 26.3623C33.5803 26.2864 33.7262 26.1408 33.8025 25.9575L34.98 23.1225C35.0558 22.939 35.0557 22.7329 34.9798 22.5494C34.9039 22.3659 34.7583 22.22 34.575 22.1437L33.2288 21.585C33.3611 20.6924 33.3611 19.7851 33.2288 18.8925L34.575 18.3375C34.7583 18.2612 34.9039 18.1153 34.9798 17.9318C35.0557 17.7484 35.0558 17.5423 34.98 17.3588L33.8025 14.52C33.7262 14.3367 33.5803 14.1911 33.3968 14.1152C33.2134 14.0393 33.0073 14.0392 32.8237 14.115L31.4775 14.67C30.9413 13.9403 30.3007 13.2933 29.5763 12.75L30.1312 11.4075C30.2071 11.224 30.207 11.0179 30.1311 10.8344C30.0552 10.6509 29.9096 10.505 29.7262 10.4287L26.8875 9.2625C26.704 9.18669 26.4979 9.18676 26.3144 9.26268C26.1309 9.3386 25.985 9.48418 25.9087 9.6675L25.35 11.01C24.4561 10.8777 23.5476 10.8777 22.6537 11.01L22.0988 9.66375C22.0225 9.48043 21.8766 9.33485 21.6931 9.25893C21.5096 9.18301 21.3035 9.18294 21.12 9.25875L18.2775 10.4362C18.0942 10.5125 17.9486 10.6584 17.8727 10.8419C17.7968 11.0254 17.7967 11.2315 17.8725 11.415L18.4238 12.75C17.6919 13.2893 17.0436 13.9338 16.5 14.6625L15.1575 14.1075C14.974 14.0317 14.7679 14.0318 14.5844 14.1077C14.4009 14.1836 14.255 14.3292 14.1788 14.5125L13.0012 17.3475C12.9254 17.531 12.9255 17.7371 13.0014 17.9206C13.0774 18.1041 13.2229 18.25 13.4062 18.3262L14.7525 18.885C14.6201 19.7776 14.6201 20.6849 14.7525 21.5775L13.4175 22.125C13.2342 22.2013 13.0886 22.3472 13.0127 22.5307C12.9368 22.7141 12.9367 22.9202 13.0125 23.1038L14.19 25.9425C14.2663 26.1258 14.4122 26.2714 14.5957 26.3473C14.7791 26.4232 14.9852 26.4233 15.1688 26.3475L16.5 25.8037C17.0382 26.5298 17.68 27.1729 18.405 27.7125L17.85 29.055C17.7742 29.2385 17.7743 29.4446 17.8502 29.6281C17.9261 29.8116 18.0717 29.9574 18.255 30.0337L20.3625 30.9075C20.42 31.14 20.4675 31.38 20.505 31.6275L20.25 31.5C20.0953 31.4337 19.9229 31.4212 19.7603 31.4648C19.5977 31.5083 19.4546 31.6052 19.3538 31.74L17.76 33.8625L10.4587 36.1125C10.2737 36.1694 10.1178 36.2958 10.0237 36.465L4.45125 46.4663H1.5V7.5H3.42375C3.24877 7.01531 3.24877 6.48469 3.42375 6H1.5V2.25C1.5 2.05109 1.57902 1.86032 1.71967 1.71967C1.86032 1.57902 2.05109 1.5 2.25 1.5H45.75C45.9489 1.5 46.1397 1.57902 46.2803 1.71967C46.421 1.86032 46.5 2.05109 46.5 2.25V6H10.0988C10.2737 6.48469 10.2737 7.01531 10.0988 7.5H46.5V12.75C46.9847 12.575 47.5153 12.575 48 12.75V2.25C48 1.65326 47.7629 1.08097 47.341 0.65901C46.919 0.237053 46.3467 0 45.75 0L2.25 0C1.65326 0 1.08097 0.237053 0.65901 0.65901C0.237053 1.08097 0 1.65326 0 2.25L0 46.4663C0 46.8641 0.158035 47.2456 0.43934 47.5269C0.720644 47.8082 1.10218 47.9663 1.5 47.9663ZM19.5375 28.935L20.0363 27.7275C20.103 27.5657 20.111 27.3856 20.059 27.2185C20.0069 27.0514 19.8981 26.9078 19.7512 26.8125C18.8157 26.2095 18.0203 25.4128 17.4188 24.4762C17.3233 24.3286 17.179 24.2192 17.0111 24.1671C16.8432 24.115 16.6623 24.1235 16.5 24.1913L15.2888 24.6937L14.685 23.25L15.8962 22.7512C16.0585 22.6841 16.1921 22.5621 16.2737 22.4065C16.3552 22.2509 16.3796 22.0717 16.3425 21.9C16.1047 20.8129 16.1047 19.6871 16.3425 18.6C16.3796 18.4283 16.3552 18.2491 16.2737 18.0935C16.1921 17.9379 16.0585 17.8159 15.8962 17.7488L14.685 17.2463L15.2888 15.795L16.5 16.2787C16.6623 16.3465 16.8432 16.355 17.0111 16.3029C17.179 16.2508 17.3233 16.1414 17.4188 15.9938C18.0218 15.0582 18.8185 14.2628 19.755 13.6613C19.901 13.5661 20.0092 13.4231 20.0612 13.2568C20.1132 13.0906 20.1057 12.9114 20.04 12.75L19.5375 11.5388L21 10.9275L21.5025 12.1387C21.5697 12.301 21.6917 12.4346 21.8472 12.5161C22.0028 12.5977 22.1821 12.6221 22.3538 12.585C23.4409 12.3475 24.5666 12.3475 25.6538 12.585C25.826 12.623 26.0061 12.5991 26.1625 12.5175C26.3189 12.4359 26.4415 12.3018 26.5088 12.1387L27 10.9312L28.455 11.535L27.96 12.75C27.8933 12.9118 27.8852 13.0919 27.9373 13.259C27.9893 13.4261 28.0982 13.5697 28.245 13.665C29.1806 14.268 29.976 15.0647 30.5775 16.0012C30.6728 16.1481 30.8164 16.2569 30.9835 16.309C31.1506 16.361 31.3307 16.353 31.4925 16.2863L32.7037 15.7838L33.3113 17.25L32.1 17.7375C31.9377 17.8047 31.8041 17.9267 31.7226 18.0823C31.641 18.2378 31.6167 18.4171 31.6538 18.5887C31.8916 19.6759 31.8916 20.8016 31.6538 21.8887C31.6167 22.0604 31.641 22.2397 31.7226 22.3953C31.8041 22.5508 31.9377 22.6728 32.1 22.74L33.3075 23.25L32.7037 24.7013L31.5 24.195C31.3377 24.1273 31.1568 24.1187 30.9889 24.1708C30.821 24.2229 30.6767 24.3323 30.5813 24.48C29.9782 25.4156 29.1815 26.211 28.245 26.8125C28.0982 26.9078 27.9893 27.0514 27.9373 27.2185C27.8852 27.3856 27.8933 27.5657 27.96 27.7275L28.4625 28.9387L26.7 29.6663C26.6468 29.6891 26.5965 29.7181 26.55 29.7525L26.5238 29.775C26.4729 29.8152 26.4276 29.8619 26.3888 29.9137V29.9325C26.3486 29.9915 26.317 30.0559 26.295 30.1238V30.1425C26.0874 30.8457 25.9616 31.5705 25.92 32.3025L24 33.1162L22.1025 32.3025C22.0609 31.5705 21.9351 30.8457 21.7275 30.1425V30.1238C21.7055 30.0559 21.6739 29.9915 21.6337 29.9325V29.91C21.5949 29.8581 21.5496 29.8115 21.4988 29.7712L21.4725 29.7488C21.426 29.7143 21.3757 29.6854 21.3225 29.6625L19.5375 28.935ZM20.1863 33.1125L23.7 34.6125C23.7936 34.6527 23.8944 34.6735 23.9963 34.6735C24.0981 34.6735 24.1989 34.6527 24.2925 34.6125L27.8063 33.1125L28.5863 34.1512L24.945 35.97H22.695L19.395 34.17L20.1863 33.1125ZM25.7738 41.6925L23.8613 43.2488L21.9863 41.6963L23.0887 37.4738H24.675L25.7738 41.6925ZM11.1787 37.455L18.27 35.2725L21.6262 37.1025L20.4075 41.7825C20.3749 41.9182 20.3808 42.0602 20.4245 42.1927C20.4683 42.3252 20.5481 42.4429 20.655 42.5325L23.385 44.7825C23.5189 44.8918 23.6865 44.9516 23.8594 44.9516C24.0323 44.9516 24.1998 44.8918 24.3337 44.7825L27.0938 42.5325C27.2047 42.4418 27.2873 42.3211 27.3319 42.1849C27.3764 42.0487 27.381 41.9025 27.345 41.7638L26.1188 37.065L29.7113 35.2688L36.8175 37.455L41.8275 46.455H34.5V43.83C34.5 43.6311 34.421 43.4403 34.2803 43.2997C34.1397 43.159 33.9489 43.08 33.75 43.08C33.5511 43.08 33.3603 43.159 33.2197 43.2997C33.079 43.4403 33 43.6311 33 43.83V46.455H15V43.83C15 43.6311 14.921 43.4403 14.7803 43.2997C14.6397 43.159 14.4489 43.08 14.25 43.08C14.0511 43.08 13.8603 43.159 13.7197 43.2997C13.579 43.4403 13.5 43.6311 13.5 43.83V46.455H6.16875L11.1787 37.455Z" fill="#DA7826"/>
<path d="M46.5 14.8759V17.3134C46.5 17.5123 46.579 17.7031 46.7197 17.8437C46.8603 17.9844 47.0511 18.0634 47.25 18.0634C47.4489 18.0634 47.6397 17.9844 47.7803 17.8437C47.921 17.7031 48 17.5123 48 17.3134V14.8759C47.9972 14.7753 47.9741 14.6763 47.9322 14.5849C47.8904 14.4934 47.8305 14.4113 47.7562 14.3434C47.6502 14.2463 47.5185 14.1817 47.3768 14.1573C47.2351 14.133 47.0894 14.1498 46.957 14.206C46.8246 14.2621 46.7112 14.3551 46.6302 14.4738C46.5491 14.5926 46.5039 14.7322 46.5 14.8759Z" fill="#DA7826"/>
</g>
<defs>
<clipPath id="clip0_675_13437">
<rect width="48" height="48" fill="white"/>
</clipPath>
</defs>
</svg>
