<svg width="48" height="48" viewBox="0 0 48 48" fill="none" xmlns="http://www.w3.org/2000/svg">
<path d="M45.0879 31.2524C44.9061 30.0174 44.044 29.0505 42.839 28.7291C41.7205 28.43 40.5279 28.5493 39.4802 29.0656L33.7074 31.9177C33.2052 30.1293 31.5632 28.8312 29.632 28.8312H22.6072C18.0598 26.2973 13.527 27.2948 9.12282 31.7953C8.7947 31.4677 8.35801 31.2867 7.89207 31.286H7.88916C7.42041 31.286 6.98035 31.4679 6.6497 31.7986L3.38467 35.0636C2.70723 35.7455 2.70723 36.8551 3.38467 37.537L12.1159 46.2682C12.4465 46.5989 12.8867 46.781 13.3554 46.781H13.3584C13.827 46.7801 14.2661 46.5974 14.593 46.2682L17.8562 43.005C18.1876 42.6736 18.3698 42.2323 18.3689 41.7625C18.3684 41.4379 18.2786 41.1284 18.1152 40.8595C18.1757 40.8501 18.234 40.8437 18.2879 40.8437H24.9446C26.6629 40.8437 28.0268 40.6642 29.5055 40.2437L34.4034 38.8484C36.125 38.357 37.4983 37.6962 39.0308 36.8555L43.6241 34.3342C44.7024 33.7451 45.277 32.5354 45.088 31.2522L45.0879 31.2524ZM16.7954 41.9445L13.5305 45.2095C13.4688 45.2716 13.3946 45.281 13.3558 45.2811H13.3554C13.3158 45.2811 13.2402 45.2715 13.1766 45.2077L4.44845 36.4797C4.35217 36.3823 4.35226 36.2181 4.44704 36.1226L7.71038 32.8593C7.77413 32.7956 7.84951 32.7861 7.88916 32.7861H7.88954C7.92835 32.7861 8.00251 32.7955 8.06598 32.8594L16.7973 41.5907C16.8594 41.6523 16.8688 41.7265 16.8688 41.7652C16.8688 41.8047 16.8594 41.8806 16.7954 41.9445ZM42.9035 33.0187L38.3089 35.5405C36.8652 36.3326 35.5785 36.9531 33.9919 37.406L29.0947 38.801C27.7572 39.1814 26.516 39.3437 24.9444 39.3437H18.2876C17.8228 39.3437 17.3675 39.4831 16.9824 39.6544L10.1841 32.8561C14.1588 28.7842 18.0407 27.9251 22.0343 30.2306L22.2083 30.3311H29.6319C31.0827 30.3311 32.2817 31.4649 32.3617 32.9129C32.3687 33.0396 32.3369 33.1276 32.2492 33.2196C32.1624 33.3113 32.0754 33.3487 31.9493 33.3487H23.5281C23.1139 33.3487 22.7781 33.6846 22.7781 34.0987C22.7781 34.5129 23.1139 34.8487 23.5281 34.8487H31.9493C32.4884 34.8487 32.9692 34.6417 33.3366 34.2528C33.5311 34.0492 33.6719 33.8171 33.7591 33.5651L40.1439 30.4107C40.8646 30.0555 41.6841 29.9729 42.4518 30.1783C43.0786 30.3455 43.5092 30.8287 43.6038 31.4709C43.7018 32.1361 43.4339 32.7289 42.9034 33.0187H42.9035ZM14.0466 41.7015C14.0466 42.1187 13.7064 42.4588 13.2893 42.4588C12.8721 42.4588 12.5319 42.1187 12.5319 41.7015C12.5319 41.2843 12.8721 40.9441 13.2893 40.9441C13.7064 40.9441 14.0466 41.2842 14.0466 41.7015ZM17.4958 11.0269C15.5452 11.0269 13.9583 12.6138 13.9583 14.5644C13.9583 16.7238 15.1981 19.0188 17.4958 19.0188C19.7935 19.0188 21.0334 16.7238 21.0334 14.5644C21.0334 12.6138 19.4464 11.0269 17.4958 11.0269ZM17.4958 17.5189C15.9563 17.5189 15.4583 15.5285 15.4583 14.5645C15.4583 13.441 16.3723 12.527 17.4958 12.527C18.6193 12.527 19.5334 13.441 19.5334 14.5645C19.5334 15.7912 18.9012 17.5189 17.4958 17.5189ZM12.7524 26.5286H19.4501C19.8372 27.1306 20.5125 27.5304 21.2799 27.5304H32.2309C32.9982 27.5304 33.6735 27.1306 34.0606 26.5286H40.7584C41.8533 26.5286 42.7441 25.6378 42.7441 24.5429V22.6695C42.7441 20.7247 41.0665 19.1425 39.0046 19.1425H33.0255C32.5583 19.1425 32.105 19.2246 31.673 19.384C31.216 19.2231 30.7219 19.1346 30.2061 19.1346H23.3049C22.7891 19.1346 22.2949 19.2231 21.8379 19.3841C21.4059 19.2247 20.9527 19.1425 20.4854 19.1425H14.5064C12.4444 19.1425 10.7668 20.7247 10.7668 22.6695V24.5429C10.7668 25.6378 11.6576 26.5286 12.7525 26.5286H12.7524ZM41.244 22.6695V24.5429C41.244 24.8108 41.0261 25.0286 40.7583 25.0286H34.4051V23.0894C34.4051 22.1661 34.0665 21.3163 33.5012 20.6425H39.0044C40.2393 20.6425 41.2439 21.5518 41.2439 22.6695H41.244ZM30.206 20.6346C31.6944 20.6346 32.9052 21.7358 32.9052 23.0894V25.3561C32.9052 25.7279 32.6027 26.0304 32.2309 26.0304H21.2799C20.9079 26.0304 20.6055 25.7279 20.6055 25.3561V23.0894C20.6055 21.7358 21.8164 20.6346 23.3049 20.6346H30.206ZM12.2666 22.6695C12.2666 21.5518 13.2714 20.6425 14.5062 20.6425H20.0094C19.4441 21.3163 19.1054 22.166 19.1054 23.0894V25.0286H12.7523C12.4845 25.0286 12.2665 24.8108 12.2665 24.5429L12.2666 22.6695ZM26.754 9.84441C24.5675 9.84441 22.7886 11.6245 22.7886 13.8125C22.7886 16.2488 24.1783 18.8381 26.754 18.8381C29.3297 18.8381 30.7221 16.2488 30.7221 13.8125C30.7221 11.6244 28.942 9.84441 26.754 9.84441ZM26.754 17.3382C24.8912 17.3382 24.2886 14.9629 24.2886 13.8126C24.2886 12.4517 25.3945 11.3445 26.754 11.3445C28.1135 11.3445 29.2221 12.4517 29.2221 13.8126C29.2221 15.2766 28.4563 17.3382 26.754 17.3382ZM24.1867 6.39084L23.9044 8.35106C23.8646 8.62659 23.9808 8.90138 24.2062 9.06497C24.3367 9.15966 24.4913 9.20803 24.6468 9.20803C24.7598 9.20803 24.8733 9.18253 24.9784 9.13069L26.7541 8.25506L28.5325 9.13088C28.7824 9.25388 29.0795 9.22838 29.3046 9.06488C29.5297 8.90138 29.6459 8.62659 29.6062 8.35116L29.3239 6.39094L30.7039 4.97072C30.8978 4.77112 30.9653 4.48059 30.8792 4.21594C30.793 3.95128 30.5676 3.75609 30.2933 3.70894L28.3425 3.37303L27.4173 1.61888C27.2874 1.37278 27.0322 1.21875 26.7539 1.21875H26.7535C26.4752 1.21884 26.2198 1.37316 26.0902 1.61953L25.1675 3.37312L23.2172 3.70903C22.9429 3.75628 22.7174 3.95147 22.6313 4.21603C22.5452 4.48069 22.6127 4.77122 22.8066 4.97081L24.1866 6.39103L24.1867 6.39084ZM25.7863 4.78847C26.016 4.74891 26.2142 4.60481 26.3229 4.39856L26.7547 3.57769L27.188 4.39922C27.2965 4.60519 27.4946 4.74891 27.7241 4.78847L28.6367 4.94559L27.9911 5.61C27.829 5.77678 27.7536 6.00938 27.7867 6.23953L27.9187 7.15641L27.0851 6.74597C26.9807 6.6945 26.8673 6.66881 26.7538 6.66881C26.6404 6.66881 26.5267 6.69459 26.4221 6.74616L25.5919 7.15556L25.7237 6.23953C25.7569 6.00938 25.6814 5.77678 25.5192 5.61L24.8737 4.94559L25.7861 4.78847H25.7863ZM14.9283 8.03353L14.6461 9.99338C14.6064 10.2688 14.7224 10.5435 14.9476 10.707C15.1726 10.8706 15.4699 10.8961 15.7194 10.7733L17.4956 9.89972L19.2719 10.7733C19.3767 10.8248 19.49 10.8503 19.6028 10.8503C19.7584 10.8503 19.9133 10.8019 20.0437 10.707C20.2688 10.5435 20.3848 10.2687 20.3452 9.99338L20.063 8.03353L21.445 6.61331C21.6392 6.41381 21.7069 6.12309 21.6208 5.85834C21.5347 5.59359 21.3091 5.39831 21.0347 5.35106L19.0816 5.01516L18.1591 3.264C18.0294 3.01772 17.7739 2.86359 17.4955 2.86359C17.2172 2.86359 16.9617 3.01772 16.832 3.264L15.9094 5.01516L13.9563 5.35106C13.6819 5.39822 13.4563 5.59359 13.3702 5.85834C13.2841 6.12309 13.3518 6.41381 13.5459 6.61331L14.9281 8.03353H14.9283ZM16.5279 6.43078C16.7575 6.39131 16.9556 6.24731 17.0644 6.04125L17.4957 5.22263L17.927 6.04125C18.0355 6.24741 18.2337 6.39131 18.4634 6.43088L19.3769 6.588L18.7307 7.25203C18.5684 7.41881 18.4927 7.65159 18.5259 7.88194L18.6579 8.79975L17.8267 8.39091C17.7223 8.33953 17.6091 8.31394 17.4957 8.31394C17.3824 8.31394 17.2691 8.33962 17.1648 8.39091L16.3335 8.79975L16.4656 7.88194C16.4988 7.6515 16.4231 7.41881 16.2608 7.25194L15.6144 6.58791L16.5279 6.43078ZM33.4475 8.03353L33.1652 9.99338C33.1254 10.2687 33.2415 10.5435 33.4666 10.707C33.5972 10.8019 33.7519 10.8503 33.9076 10.8503C34.0204 10.8503 34.1336 10.8248 34.2384 10.7733L36.0148 9.89963L37.7911 10.7732C38.0406 10.896 38.3379 10.8705 38.5629 10.7069C38.7879 10.5434 38.904 10.2686 38.8644 9.99328L38.5822 8.03344L39.9642 6.61322C40.1584 6.41372 40.2261 6.123 40.14 5.85825C40.0539 5.5935 39.8283 5.39822 39.5539 5.35097L37.6009 5.01506L36.6783 3.26391C36.5484 3.01763 36.2931 2.8635 36.0147 2.8635C35.7364 2.8635 35.481 3.01763 35.3512 3.26391L34.4286 5.01506L32.4755 5.35097C32.2011 5.39812 31.9755 5.5935 31.8894 5.85825C31.8033 6.123 31.871 6.41372 32.0651 6.61322L33.4473 8.03344L33.4475 8.03353ZM35.0471 6.43078C35.2767 6.39131 35.4748 6.24731 35.5836 6.04125L36.0149 5.22253L36.4463 6.04125C36.5549 6.24731 36.753 6.39131 36.9827 6.43078L37.8961 6.58791L37.2499 7.25194C37.0876 7.41872 37.0119 7.6515 37.045 7.88184L37.1771 8.79966L36.3459 8.39081C36.1371 8.28816 35.8927 8.28816 35.6839 8.39081L34.8526 8.79966L34.9847 7.88194C35.0179 7.6515 34.9422 7.41881 34.7799 7.25194L34.1335 6.58791L35.047 6.43078H35.0471ZM36.0148 11.0271C34.0642 11.0271 32.4773 12.614 32.4773 14.5646C32.4773 16.724 33.7171 19.019 36.0148 19.019C38.3125 19.019 39.5524 16.724 39.5524 14.5646C39.5524 12.614 37.9654 11.0271 36.0148 11.0271ZM36.0148 17.5191C34.6094 17.5191 33.9773 15.7914 33.9773 14.5647C33.9773 13.4412 34.8913 12.5272 36.0148 12.5272C37.1383 12.5272 38.0524 13.4412 38.0524 14.5647C38.0524 15.5287 37.5544 17.5191 36.0148 17.5191Z" fill="#DA7826"/>
</svg>
