<svg width="16" height="16" viewBox="0 0 16 16" fill="none" xmlns="http://www.w3.org/2000/svg">
<g clip-path="url(#clip0_95_27864)">
<path d="M6.41105 0.576407C6.176 0.636247 5.95603 0.764476 5.77221 0.949696C5.48292 1.2432 5.41964 1.45406 5.41964 2.1408V2.66226H3.59654H1.77344L1.77946 3.52282L1.7885 4.38623H7.67969H13.5709L13.5799 3.52282L13.5859 2.66226H11.7658H9.94275L9.93371 2.08381C9.92467 1.56235 9.91563 1.49396 9.85234 1.34293C9.72277 1.03233 9.40033 0.733132 9.06585 0.604903C8.90614 0.542213 8.86094 0.539363 7.75502 0.533664C6.74554 0.527965 6.58583 0.533664 6.41105 0.576407ZM8.79464 1.44266C9.01161 1.55095 9.03571 1.62503 9.03571 2.18354V2.66226H7.67969H6.32366V2.18354C6.32366 1.62788 6.34777 1.5538 6.56473 1.44551C6.69129 1.37998 6.71239 1.37998 7.67667 1.37998C8.63795 1.37998 8.66507 1.38282 8.79464 1.44266Z" fill="#E44421"/>
<path d="M2.76855 5.63611C2.76855 5.64181 2.95237 7.62508 3.17536 10.0443C3.43753 12.9024 3.59724 14.4981 3.62737 14.5922C3.75695 14.9997 4.13061 15.3302 4.59768 15.4442C4.85684 15.5069 10.5039 15.5069 10.7631 15.4442C11.2302 15.3302 11.6038 14.9997 11.7334 14.5922C11.7635 14.4981 11.9232 12.9024 12.1854 10.0443C12.4084 7.62508 12.5922 5.64181 12.5922 5.63611C12.5922 5.63041 10.3834 5.62756 7.68039 5.62756C4.98039 5.62756 2.76855 5.63041 2.76855 5.63611ZM6.31833 10.1213L6.30929 12.4807L5.86632 12.4892L5.42034 12.4978V10.1298V7.76471H5.87235H6.32436L6.31833 10.1213ZM8.13239 10.1298V12.4949H7.68039H7.22838V10.1298V7.76471H7.68039H8.13239V10.1298ZM9.94043 10.1298V12.4978L9.49746 12.4892L9.05148 12.4807L9.04244 10.1213L9.03641 7.76471H9.48842H9.94043V10.1298Z" fill="#E44421"/>
</g>
<defs>
<clipPath id="clip0_95_27864">
<rect width="15.4286" height="15.4286" fill="white"/>
</clipPath>
</defs>
</svg>
