<svg width="48" height="48" viewBox="0 0 48 48" fill="none" xmlns="http://www.w3.org/2000/svg">
<path d="M14.805 21.7969C9.22428 21.7969 4.68378 26.3374 4.68378 31.9189C4.68378 37.5004 9.22428 42.0409 14.805 42.0409C20.3858 42.0409 24.927 37.4996 24.927 31.9189C24.927 26.3381 20.3865 21.7969 14.805 21.7969ZM14.805 40.5401C10.0508 40.5401 6.18378 36.6724 6.18378 31.9181C6.18378 27.1639 10.0508 23.2961 14.805 23.2961C19.5593 23.2961 23.427 27.1639 23.427 31.9181C23.427 36.6724 19.5593 40.5401 14.805 40.5401Z" fill="#DA7826"/>
<path d="M14.805 24.2285C10.5645 24.2285 7.11377 27.6785 7.11377 31.9198C7.11377 36.161 10.5645 39.611 14.805 39.611C19.0455 39.611 22.4963 36.1603 22.4963 31.9198C22.4963 27.6793 19.0463 24.2285 14.805 24.2285ZM14.805 38.111C11.391 38.111 8.61377 35.3338 8.61377 31.9198C8.61377 28.5058 11.391 25.7285 14.805 25.7285C18.219 25.7285 20.9963 28.5058 20.9963 31.9198C20.9963 35.3338 18.219 38.111 14.805 38.111Z" fill="#DA7826"/>
<path d="M14.7945 29.3118C14.8005 29.3118 14.805 29.3148 14.811 29.3148C14.8148 29.3148 14.8185 29.3125 14.8223 29.3125C15.3263 29.3215 15.735 29.7318 15.735 30.238C15.735 30.652 16.0703 30.988 16.485 30.988C16.8998 30.988 17.235 30.652 17.235 30.238C17.235 29.164 16.5293 28.261 15.5618 27.9415V27.1855C15.5618 26.7715 15.2265 26.4355 14.8118 26.4355C14.397 26.4355 14.0618 26.7715 14.0618 27.1855V27.9385C13.0883 28.255 12.378 29.161 12.378 30.2388C12.378 31.5783 13.4678 32.668 14.8065 32.668C15.3188 32.668 15.735 33.085 15.735 33.5965C15.735 34.1043 15.3248 34.516 14.8185 34.5228C14.8163 34.5228 14.814 34.5213 14.811 34.5213C14.8065 34.5213 14.8028 34.5235 14.7983 34.5235C14.2898 34.519 13.8773 34.1058 13.8773 33.5958C13.8773 33.1818 13.542 32.8458 13.1273 32.8458C12.7125 32.8458 12.3773 33.1818 12.3773 33.5958C12.3773 34.6735 13.0875 35.5788 14.061 35.896V36.6498C14.061 37.0638 14.3963 37.3998 14.811 37.3998C15.2258 37.3998 15.561 37.0638 15.561 36.6498V35.893C16.5293 35.5735 17.2343 34.6705 17.2343 33.5965C17.2343 32.257 16.1445 31.168 14.8058 31.168C14.2935 31.168 13.8773 30.751 13.8773 30.2388C13.8765 29.7295 14.2875 29.3178 14.7945 29.3118Z" fill="#DA7826"/>
<path d="M43.3163 22.1494C43.3163 20.9089 42.3068 19.8994 41.0663 19.8994H29.3723C28.1318 19.8994 27.1223 20.9089 27.1223 22.1494V24.0469C27.1223 24.6252 27.348 25.1479 27.7073 25.5469C27.3473 25.9459 27.1223 26.4687 27.1223 27.0469V28.9452C27.1223 29.5234 27.348 30.0462 27.7073 30.4452C27.3473 30.8442 27.1223 31.3669 27.1223 31.9452V33.8427C27.1223 34.4209 27.348 34.9437 27.7073 35.3427C27.3473 35.7417 27.1223 36.2644 27.1223 36.8427V38.7402C27.1223 39.9807 28.1318 40.9902 29.3723 40.9902H41.0663C42.3068 40.9902 43.3163 39.9807 43.3163 38.7402V36.8427C43.3163 36.2644 43.0905 35.7417 42.7313 35.3427C43.0913 34.9437 43.3163 34.4209 43.3163 33.8427V31.9452C43.3163 31.3669 43.0905 30.8442 42.7313 30.4452C43.0913 30.0462 43.3163 29.5234 43.3163 28.9452V27.0469C43.3163 26.4687 43.0905 25.9459 42.7313 25.5469C43.0913 25.1479 43.3163 24.6252 43.3163 24.0469V22.1494ZM28.6223 22.1494C28.6223 21.7362 28.9583 21.3994 29.3723 21.3994H41.0663C41.4803 21.3994 41.8163 21.7362 41.8163 22.1494V24.0469C41.8163 24.4602 41.4803 24.7969 41.0663 24.7969H29.3723C28.9583 24.7969 28.6223 24.4602 28.6223 24.0469V22.1494ZM41.8163 27.0469V28.9452C41.8163 29.3584 41.4803 29.6952 41.0663 29.6952H29.3723C28.9583 29.6952 28.6223 29.3584 28.6223 28.9452V27.0469C28.6223 26.6337 28.9583 26.2969 29.3723 26.2969H41.0663C41.4803 26.2969 41.8163 26.6337 41.8163 27.0469ZM41.8163 31.9452V33.8427C41.8163 34.2559 41.4803 34.5927 41.0663 34.5927H29.3723C28.9583 34.5927 28.6223 34.2559 28.6223 33.8427V31.9452C28.6223 31.5319 28.9583 31.1952 29.3723 31.1952H41.0663C41.4803 31.1952 41.8163 31.5319 41.8163 31.9452ZM41.8163 38.7409C41.8163 39.1542 41.4803 39.4909 41.0663 39.4909H29.3723C28.9583 39.4909 28.6223 39.1542 28.6223 38.7409V36.8434C28.6223 36.4302 28.9583 36.0934 29.3723 36.0934H41.0663C41.4803 36.0934 41.8163 36.4302 41.8163 36.8434V38.7409Z" fill="#DA7826"/>
<path d="M29.3281 12.1964C29.3318 13.4586 28.8413 14.6474 27.9451 15.5429C26.1818 17.3046 23.3678 17.3819 21.5101 15.7799H22.3838C22.7986 15.7799 23.1338 15.4439 23.1338 15.0299C23.1338 14.6159 22.7986 14.2799 22.3838 14.2799H19.9013C19.4866 14.2799 19.1513 14.6159 19.1513 15.0299V17.5131C19.1513 17.9271 19.4866 18.2631 19.9013 18.2631C20.3161 18.2631 20.6513 17.9271 20.6513 17.5131V17.0234C21.7951 17.9586 23.1953 18.4266 24.5956 18.4266C26.1931 18.4266 27.7898 17.8184 29.0056 16.6026C30.1861 15.4221 30.8333 13.8554 30.8281 12.1911C30.8266 11.7779 30.4913 11.4434 30.0781 11.4434C30.0773 11.4434 30.0766 11.4434 30.0758 11.4434C29.6611 11.4456 29.3266 11.7824 29.3281 12.1964Z" fill="#DA7826"/>
<path d="M19.1161 12.9443C19.5308 12.9428 19.8653 12.606 19.8638 12.192C19.8601 10.9298 20.3506 9.74105 21.2468 8.84555C23.0108 7.0823 25.8278 7.00655 27.6878 8.61305H26.8028C26.3881 8.61305 26.0528 8.94905 26.0528 9.36305C26.0528 9.77705 26.3881 10.113 26.8028 10.113H29.2853C29.6663 10.113 30.0353 9.75455 30.0353 9.36305V6.88055C30.0353 6.46655 29.7001 6.13055 29.2853 6.13055C28.8706 6.13055 28.5353 6.46655 28.5353 6.88055V7.36055C26.0888 5.36405 22.4678 5.5043 20.1863 7.7858C19.0058 8.9663 18.3586 10.533 18.3638 12.1973C18.3653 12.6098 18.7013 12.9443 19.1161 12.9443Z" fill="#DA7826"/>
</svg>
