<svg width="20" height="20" viewBox="0 0 20 20" fill="none" xmlns="http://www.w3.org/2000/svg">
<path d="M8.33268 3.33332C7.0066 3.33332 5.73483 3.8601 4.79715 4.79778C3.85947 5.73546 3.33268 7.00723 3.33268 8.33332C3.33268 9.6594 3.85947 10.9312 4.79715 11.8688C5.73483 12.8065 7.0066 13.3333 8.33268 13.3333C9.65876 13.3333 10.9305 12.8065 11.8682 11.8688C12.8059 10.9312 13.3327 9.6594 13.3327 8.33332C13.3327 7.00723 12.8059 5.73546 11.8682 4.79778C10.9305 3.8601 9.65876 3.33332 8.33268 3.33332ZM1.66602 8.33332C1.66617 7.27237 1.91953 6.22677 2.40505 5.28343C2.89057 4.3401 3.59422 3.52626 4.45752 2.90955C5.32082 2.29285 6.31885 1.89109 7.36864 1.73767C8.41844 1.58426 9.4897 1.6836 10.4934 2.02746C11.4971 2.37132 12.4042 2.94976 13.1394 3.71471C13.8745 4.47965 14.4165 5.40901 14.7203 6.42555C15.024 7.44208 15.0808 8.51644 14.8858 9.55932C14.6909 10.6022 14.2498 11.5835 13.5993 12.4216L18.0885 16.9108C18.2403 17.068 18.3243 17.2785 18.3224 17.497C18.3205 17.7155 18.2329 17.9245 18.0784 18.079C17.9239 18.2335 17.7148 18.3211 17.4963 18.323C17.2779 18.3249 17.0673 18.2409 16.9102 18.0891L12.421 13.6C11.4356 14.3651 10.2552 14.8383 9.01415 14.9658C7.77311 15.0933 6.52117 14.8701 5.40072 14.3214C4.28027 13.7727 3.33626 12.9206 2.67604 11.8621C2.01581 10.8035 1.66588 9.5809 1.66602 8.33332Z" fill="#929292"/>
</svg>
