<svg width="48" height="48" viewBox="0 0 48 48" fill="none" xmlns="http://www.w3.org/2000/svg">
<path d="M17 45C16.2089 45 15.4355 44.7654 14.7777 44.3259C14.1199 43.8864 13.6072 43.2616 13.3045 42.5307C13.0017 41.7998 12.9225 40.9956 13.0769 40.2196C13.2312 39.4437 13.6122 38.731 14.1716 38.1716C14.731 37.6122 15.4437 37.2312 16.2196 37.0769C16.9956 36.9225 17.7998 37.0017 18.5307 37.3045C19.2616 37.6072 19.8864 38.1199 20.3259 38.7777C20.7654 39.4355 21 40.2089 21 41C21 42.0609 20.5786 43.0783 19.8284 43.8284C19.0783 44.5786 18.0609 45 17 45ZM17 39C16.6044 39 16.2178 39.1173 15.8889 39.3371C15.56 39.5568 15.3036 39.8692 15.1522 40.2346C15.0009 40.6001 14.9613 41.0022 15.0384 41.3902C15.1156 41.7781 15.3061 42.1345 15.5858 42.4142C15.8655 42.6939 16.2219 42.8844 16.6098 42.9616C16.9978 43.0387 17.3999 42.9991 17.7654 42.8478C18.1308 42.6964 18.4432 42.44 18.6629 42.1111C18.8827 41.7822 19 41.3956 19 41C19 40.4696 18.7893 39.9609 18.4142 39.5858C18.0391 39.2107 17.5304 39 17 39Z" fill="#DA7826"/>
<path d="M30 45C29.2089 45 28.4355 44.7654 27.7777 44.3259C27.1199 43.8864 26.6072 43.2616 26.3045 42.5307C26.0017 41.7998 25.9225 40.9956 26.0769 40.2196C26.2312 39.4437 26.6122 38.731 27.1716 38.1716C27.731 37.6122 28.4437 37.2312 29.2196 37.0769C29.9956 36.9225 30.7998 37.0017 31.5307 37.3045C32.2616 37.6072 32.8864 38.1199 33.3259 38.7777C33.7654 39.4355 34 40.2089 34 41C34 42.0609 33.5786 43.0783 32.8284 43.8284C32.0783 44.5786 31.0609 45 30 45ZM30 39C29.6044 39 29.2178 39.1173 28.8889 39.3371C28.56 39.5568 28.3036 39.8692 28.1522 40.2346C28.0009 40.6001 27.9613 41.0022 28.0384 41.3902C28.1156 41.7781 28.3061 42.1345 28.5858 42.4142C28.8655 42.6939 29.2219 42.8844 29.6098 42.9616C29.9978 43.0387 30.3999 42.9991 30.7654 42.8478C31.1308 42.6964 31.4432 42.44 31.6629 42.1111C31.8827 41.7822 32 41.3956 32 41C32 40.4696 31.7893 39.9609 31.4142 39.5858C31.0391 39.2107 30.5304 39 30 39Z" fill="#DA7826"/>
<path d="M10 31.0001C9.73478 31.0001 9.48043 30.8947 9.29289 30.7072C9.10536 30.5196 9 30.2653 9 30.0001V7.54206C9.0003 7.06845 8.83251 6.6101 8.52651 6.24862C8.22051 5.88713 7.79616 5.64597 7.329 5.56806L3.836 4.98606C3.70335 4.96809 3.57567 4.92367 3.46051 4.85543C3.34535 4.78719 3.24506 4.69653 3.16559 4.58882C3.08612 4.4811 3.02908 4.35853 2.99786 4.22836C2.96664 4.0982 2.96187 3.96309 2.98383 3.83104C3.00579 3.699 3.05404 3.57271 3.12572 3.45966C3.19739 3.34661 3.29103 3.24909 3.40109 3.1729C3.51115 3.09672 3.63539 3.0434 3.76644 3.01611C3.89749 2.98883 4.03268 2.98813 4.164 3.01406L7.657 3.60006C8.5917 3.75284 9.44146 4.23345 10.054 4.95578C10.6666 5.67811 11.002 6.59496 11 7.54206V30.0001C11 30.2653 10.8946 30.5196 10.7071 30.7072C10.5196 30.8947 10.2652 31.0001 10 31.0001Z" fill="#DA7826"/>
<path d="M29.42 32H10C9.73478 32 9.48043 31.8946 9.29289 31.7071C9.10536 31.5196 9 31.2652 9 31V11C9 10.7348 9.10536 10.4804 9.29289 10.2929C9.48043 10.1054 9.73478 10 10 10H28.06C28.3252 10 28.5796 10.1054 28.7671 10.2929C28.9546 10.4804 29.06 10.7348 29.06 11C29.06 11.2652 28.9546 11.5196 28.7671 11.7071C28.5796 11.8946 28.3252 12 28.06 12H11V30H29.42C29.6112 29.9989 29.7983 29.9442 29.96 29.842L36.533 25.656C36.6772 25.5673 36.7961 25.4427 36.8779 25.2945C36.9597 25.1462 37.0018 24.9793 37 24.81V19.75C37 19.4848 37.1054 19.2304 37.2929 19.0429C37.4804 18.8554 37.7348 18.75 38 18.75C38.2652 18.75 38.5196 18.8554 38.7071 19.0429C38.8946 19.2304 39 19.4848 39 19.75V24.81C39.0035 25.3178 38.8766 25.818 38.6315 26.2627C38.3864 26.7074 38.0312 27.0818 37.6 27.35L31.029 31.534C30.5471 31.8374 29.9895 31.9989 29.42 32Z" fill="#DA7826"/>
<path d="M24 27C23.7348 27 23.4804 26.8946 23.2929 26.7071C23.1054 26.5196 23 26.2652 23 26V16C23 15.7348 23.1054 15.4804 23.2929 15.2929C23.4804 15.1054 23.7348 15 24 15C24.2652 15 24.5196 15.1054 24.7071 15.2929C24.8946 15.4804 25 15.7348 25 16V26C25 26.2652 24.8946 26.5196 24.7071 26.7071C24.5196 26.8946 24.2652 27 24 27Z" fill="#DA7826"/>
<path d="M19 25C18.7348 25 18.4804 24.8946 18.2929 24.7071C18.1054 24.5196 18 24.2652 18 24V18C18 17.7348 18.1054 17.4804 18.2929 17.2929C18.4804 17.1054 18.7348 17 19 17C19.2652 17 19.5196 17.1054 19.7071 17.2929C19.8946 17.4804 20 17.7348 20 18V24C20 24.2652 19.8946 24.5196 19.7071 24.7071C19.5196 24.8946 19.2652 25 19 25Z" fill="#DA7826"/>
<path d="M29 25C28.7348 25 28.4804 24.8946 28.2929 24.7071C28.1054 24.5196 28 24.2652 28 24V18C28 17.7348 28.1054 17.4804 28.2929 17.2929C28.4804 17.1054 28.7348 17 29 17C29.2652 17 29.5196 17.1054 29.7071 17.2929C29.8946 17.4804 30 17.7348 30 18V24C30 24.2652 29.8946 24.5196 29.7071 24.7071C29.5196 24.8946 29.2652 25 29 25Z" fill="#DA7826"/>
<path d="M36 39H10.5C9.30653 39 8.16193 38.5259 7.31802 37.682C6.47411 36.8381 6 35.6935 6 34.5C6 33.3065 6.47411 32.1619 7.31802 31.318C8.16193 30.4741 9.30653 30 10.5 30H22C22.2652 30 22.5196 30.1054 22.7071 30.2929C22.8946 30.4804 23 30.7348 23 31C23 31.2652 22.8946 31.5196 22.7071 31.7071C22.5196 31.8946 22.2652 32 22 32H10.5C9.83696 32 9.20107 32.2634 8.73223 32.7322C8.26339 33.2011 8 33.837 8 34.5C8 35.163 8.26339 35.7989 8.73223 36.2678C9.20107 36.7366 9.83696 37 10.5 37H36C36.2652 37 36.5196 37.1054 36.7071 37.2929C36.8946 37.4804 37 37.7348 37 38C37 38.2652 36.8946 38.5196 36.7071 38.7071C36.5196 38.8946 36.2652 39 36 39Z" fill="#DA7826"/>
<path d="M36 21C33.9421 21.0002 31.9462 20.2951 30.3451 19.0022C28.744 17.7093 27.6344 15.9068 27.201 13.895C26.7677 11.8833 27.037 9.78373 27.9639 7.94637C28.8907 6.10901 30.4193 4.64479 32.2948 3.79774C34.1703 2.95069 36.2795 2.77198 38.2708 3.29138C40.2621 3.81078 42.0152 4.99692 43.2381 6.65212C44.4609 8.30733 45.0796 10.3316 44.9909 12.3876C44.9023 14.4436 44.1117 16.4072 42.751 17.951C41.9061 18.9086 40.8672 19.6757 39.7033 20.2014C38.5394 20.727 37.2771 20.9993 36 21ZM36 5.00001C34.3993 4.99956 32.8468 5.54773 31.6013 6.55314C30.3557 7.55855 29.4924 8.96046 29.1552 10.5252C28.8179 12.09 29.0272 13.7231 29.748 15.1523C30.4688 16.5815 31.6577 17.7204 33.1165 18.3794C34.5752 19.0383 36.2158 19.1774 37.7646 18.7734C39.3135 18.3695 40.6772 17.4469 41.6283 16.1594C42.5794 14.8719 43.0606 13.2974 42.9915 11.6982C42.9225 10.099 42.3075 8.57174 41.249 7.37101C40.592 6.62649 39.7843 6.0301 38.8793 5.62134C37.9744 5.21258 36.9929 5.00079 36 5.00001Z" fill="#DA7826"/>
<path d="M35 15.0004C34.7348 15.0004 34.4805 14.895 34.293 14.7074L32.293 12.7074C32.1108 12.5188 32.01 12.2662 32.0123 12.004C32.0146 11.7418 32.1198 11.491 32.3052 11.3056C32.4906 11.1202 32.7414 11.015 33.0036 11.0127C33.2658 11.0105 33.5184 11.1112 33.707 11.2934L35 12.5864L38.293 9.29341C38.4816 9.11125 38.7342 9.01045 38.9964 9.01273C39.2586 9.01501 39.5094 9.12018 39.6948 9.30559C39.8802 9.491 39.9854 9.74181 39.9877 10.004C39.9899 10.2662 39.8891 10.5188 39.707 10.7074L35.707 14.7074C35.5195 14.895 35.2652 15.0004 35 15.0004Z" fill="#DA7826"/>
</svg>
