<svg width="114" height="114" viewBox="0 0 114 114" fill="none" xmlns="http://www.w3.org/2000/svg">
<g clip-path="url(#clip0_1227_4167)">
<path d="M114 57C114 75.0622 105.599 91.1622 92.4901 101.605C82.4023 109.632 69.8915 114.002 57 114.002C44.1085 114.002 31.5977 109.632 21.5099 101.605C8.4012 91.1622 0 75.0622 0 57C0 25.5201 25.5201 0 57 0C88.4799 0 114 25.5201 114 57Z" fill="#CED5D8"/>
<path d="M57.0002 68.2236C70.2331 68.2236 80.9604 57.4962 80.9604 44.2634C80.9604 31.0306 70.2331 20.3032 57.0002 20.3032C43.7674 20.3032 33.04 31.0306 33.04 44.2634C33.04 57.4962 43.7674 68.2236 57.0002 68.2236Z" fill="#A6AFB2"/>
<path d="M92.4899 101.605C82.4021 109.631 69.8913 114.001 56.9998 114.001C44.1083 114.001 31.5975 109.631 21.5098 101.605C26.1189 86.3737 40.2643 75.2852 56.9998 75.2852C73.7354 75.2852 87.8807 86.3737 92.4899 101.605Z" fill="#A6AFB2"/>
</g>
<defs>
<clipPath id="clip0_1227_4167">
<rect width="114" height="114" fill="white"/>
</clipPath>
</defs>
</svg>
